<svg xmlns="http://www.w3.org/2000/svg" width="22" height="22" fill="none"><path fill="#fff" d="M2.25 14.91a4.08 4.08 0 0 0-.523.43C.587 16.48.191 17.975.061 19.092a9.235 9.235 0 0 0-.053 1.434c.007.182.14 1.21.15 1.316.105.01 1.134.143 1.316.15a9.21 9.21 0 0 0 1.433-.053c1.118-.13 2.614-.525 3.755-1.666.141-.142.286-.32.429-.523.094-.133.14-.2.276-.53.307-.749.186-2.172-.243-2.858-.19-.303-.355-.469-.686-.8-.331-.331-.497-.497-.8-.686-.686-.429-2.11-.55-2.858-.244-.33.136-.397.183-.53.277Z"/><path fill="#fff" fill-rule="evenodd" d="M17.097.319A19.444 19.444 0 0 1 19.933.01c.467-.016.701-.024.943.047.463.136.93.603 1.066 1.066.071.242.064.476.048.943-.024.71-.1 1.702-.308 2.836-.4 2.173-1.299 4.94-3.32 7.237l-.266 5.09a4.247 4.247 0 0 1-8.483-.04l-.05-1.172-3.581-3.58-1.172-.05a4.247 4.247 0 0 1-.04-8.484l5.09-.265C12.157 1.617 14.924.718 17.097.32ZM14.77 9.746a2.514 2.514 0 1 1-5.029 0 2.514 2.514 0 0 1 5.029 0Z" clip-rule="evenodd"/></svg>