<svg xmlns="http://www.w3.org/2000/svg" width="185" height="180" fill="none"><g filter="url(#a)"><path fill="url(#b)" d="M30.159 68.502c-5.82 0-10.556 4.736-10.556 10.557 0 5.82 4.735 10.556 10.556 10.556H154.6c5.821 0 10.557-4.736 10.557-10.556 0-5.821-4.736-10.557-10.557-10.557-.544 0-1.093.042-1.63.125a4.801 4.801 0 0 1-5.282-6.278 14 14 0 0 0 .735-4.48c0-7.731-6.29-14.02-14.022-14.02-2.039 0-4.01.43-5.857 1.282a4.802 4.802 0 0 1-6.719-3.42c-2.791-13.97-15.175-24.108-29.446-24.108-14.27 0-26.654 10.139-29.445 24.108a4.802 4.802 0 0 1-6.718 3.42 13.891 13.891 0 0 0-5.858-1.283c-7.731 0-14.021 6.29-14.021 14.022 0 1.523.247 3.03.735 4.48a4.8 4.8 0 0 1-5.283 6.277 10.728 10.728 0 0 0-1.63-.125Z"/><path fill="url(#c)" d="M154.6 99.218H30.159C19.043 99.218 10 90.174 10 79.058c0-9.96 7.262-18.257 16.77-19.874a23.788 23.788 0 0 1-.036-1.314c0-13.027 10.598-23.624 23.624-23.624 1.545 0 3.068.147 4.559.44A39.813 39.813 0 0 1 67.1 17.107 39.686 39.686 0 0 1 92.379 8a39.69 39.69 0 0 1 25.28 9.108 39.826 39.826 0 0 1 12.184 17.577 23.626 23.626 0 0 1 4.558-.44c13.027 0 23.624 10.598 23.624 23.625 0 .439-.012.877-.036 1.314 9.508 1.617 16.77 9.913 16.77 19.875 0 11.115-9.043 20.159-20.159 20.159ZM30.159 68.502c-5.82 0-10.556 4.736-10.556 10.557 0 5.82 4.735 10.556 10.556 10.556H154.6c5.821 0 10.557-4.736 10.557-10.556 0-5.821-4.736-10.557-10.557-10.557-.544 0-1.093.042-1.63.125a4.801 4.801 0 0 1-5.282-6.278 14 14 0 0 0 .735-4.48c0-7.731-6.29-14.02-14.022-14.02-2.039 0-4.01.43-5.857 1.282a4.802 4.802 0 0 1-6.719-3.42c-2.791-13.97-15.175-24.108-29.446-24.108-14.27 0-26.654 10.139-29.445 24.108a4.802 4.802 0 0 1-6.718 3.42 13.891 13.891 0 0 0-5.858-1.283c-7.731 0-14.021 6.29-14.021 14.022 0 1.523.247 3.03.735 4.48a4.8 4.8 0 0 1-5.283 6.277 10.728 10.728 0 0 0-1.63-.125Z"/><path fill="url(#d)" d="M62.934 41.712a4.802 4.802 0 0 1-6.718 3.42 13.891 13.891 0 0 0-5.858-1.284c-7.731 0-14.021 6.29-14.021 14.022 0 1.523.247 3.03.735 4.48a4.8 4.8 0 0 1-5.283 6.277 10.712 10.712 0 0 0-1.63-.125c-5.82 0-10.556 4.736-10.556 10.557 0 5.82 4.735 10.556 10.556 10.556h24.628c-3.517 0-6.378-4.735-6.378-10.556 0-5.821 2.861-10.557 6.378-10.557.33 0 .66.042.985.125 1 .256 2.01-.37 2.662-1.653.652-1.283.853-3.036.53-4.624a22.528 22.528 0 0 1-.444-4.48c0-7.732 3.8-14.022 8.47-14.022 1.234 0 2.425.432 3.54 1.283.807.616 1.74.585 2.53-.081.792-.667 1.355-1.897 1.53-3.338 1.686-13.97 9.168-24.11 17.79-24.11-14.271 0-26.655 10.14-29.446 24.11Z"/><path fill="url(#e)" d="M65.868 93.167v6.05a7.896 7.896 0 0 1 7.896 7.897v8.79h37.231v-8.79a7.896 7.896 0 0 1 7.896-7.896v-6.051H65.868Z"/><path fill="url(#f)" d="M110.995 114.514h-37.23v30.632h37.23v-30.632Z"/><path fill="url(#g)" d="M63.293 136.673c-2.108 0-2.613 1.219-1.123 2.71l27.5 27.499a3.844 3.844 0 0 0 5.42 0l27.499-27.499c1.491-1.491.985-2.71-1.123-2.71H63.293Z"/><path stroke="#000" d="M63.293 137.173h9.97v8.473h38.232v-8.473h9.971c1.018 0 1.371.299 1.449.487.068.165.048.538-.44 1.111l-.24.258-27.499 27.499a3.345 3.345 0 0 1-4.59.118l-.124-.118-27.498-27.499c-.72-.72-.758-1.181-.68-1.369.078-.188.43-.487 1.449-.487Zm47.202 0v7.473H74.264v-7.473h36.231Zm0-20.769v19.769H74.264v-19.769h36.231Zm0-1.39v.39H74.264v-.39h36.231Zm4.419-15.296a8.392 8.392 0 0 0-4.419 7.395v6.901H74.264v-6.901a8.393 8.393 0 0 0-4.42-7.395h45.07ZM92.38 8.5a39.196 39.196 0 0 1 24.299 8.457l.661.536a39.316 39.316 0 0 1 12.03 17.356l.143.41.425-.083a23.133 23.133 0 0 1 4.463-.43c12.751 0 23.124 10.374 23.124 23.124 0 .43-.012.859-.036 1.286l-.024.447.44.075c9.272 1.576 16.355 9.668 16.355 19.38l-.007.507c-.27 10.607-8.982 19.153-19.652 19.153h-35.21v-6.051H65.368v6.05H30.16c-10.84 0-19.659-8.819-19.659-19.658 0-9.713 7.082-17.805 16.355-19.381l.439-.075-.024-.447a23.243 23.243 0 0 1-.036-1.286c0-12.75 10.374-23.124 23.124-23.124 1.514 0 3.004.144 4.462.43l.427.084.143-.411a39.318 39.318 0 0 1 11.514-16.921l.516-.435A39.186 39.186 0 0 1 92.38 8.5Zm26.011 85.167v5.05H66.368v-5.05h52.023Zm29.532-35.798c0 1.286-.183 2.56-.544 3.794l-.165.527a5.3 5.3 0 0 0 5.489 6.973l.344-.042a10.205 10.205 0 0 1 1.554-.119c5.544 0 10.055 4.512 10.055 10.057 0 5.544-4.511 10.056-10.055 10.056H54.787c-1.515 0-2.974-1.022-4.08-2.853-1.1-1.822-1.798-4.369-1.798-7.203 0-2.835.698-5.381 1.798-7.203 1.106-1.83 2.565-2.854 4.08-2.854.215 0 .432.02.647.062l.214.047c1.244.318 2.378-.423 3.094-1.658l.138-.253c.665-1.308.889-3.033.632-4.632l-.058-.318a22.031 22.031 0 0 1-.434-4.38c0-3.79.932-7.203 2.412-9.652 1.485-2.459 3.467-3.87 5.56-3.87 1.038 0 2.058.34 3.04 1.037l.195.143c.482.368 1.028.561 1.59.543a2.49 2.49 0 0 0 1.387-.499l.179-.14c.864-.727 1.443-1.976 1.663-3.378l.04-.282c.835-6.917 3.102-12.858 6.2-17.056 3.004-4.07 6.75-6.461 10.71-6.607l.384-.007c13.813 0 25.829 9.663 28.819 23.066l.136.642a5.3 5.3 0 0 0 2.527 3.54l.267.145a5.302 5.302 0 0 0 4.345.21l.279-.12a13.396 13.396 0 0 1 5.648-1.237c7.455 0 13.522 6.066 13.522 13.521Zm-111.086 0c0-7.455 6.066-13.52 13.521-13.52 1.845 0 3.63.365 5.313 1.087l.335.149a5.303 5.303 0 0 0 4.35.04l.275-.13a5.302 5.302 0 0 0 2.725-3.39l.068-.295a29.236 29.236 0 0 1 1.657-5.458c2.479-5.99 6.86-10.93 12.323-14.154a29.513 29.513 0 0 1 8.984-3.478c-2.18 1.212-4.18 3.061-5.907 5.402-3.119 4.227-5.391 10.097-6.304 16.871l-.084.658c-.155 1.281-.628 2.321-1.232 2.906l-.123.11c-.323.272-.649.394-.953.404-.303.01-.628-.09-.952-.338h.001c-1.19-.908-2.486-1.384-3.843-1.384-2.579 0-4.833 1.733-6.416 4.352-1.588 2.63-2.556 6.227-2.556 10.17 0 1.36.117 2.71.348 4.02l.107.558c.285 1.4.131 2.925-.38 4.073l-.106.225c-.563 1.108-1.316 1.517-1.965 1.422l-.128-.026a4.479 4.479 0 0 0-1.108-.141c-2.002 0-3.732 1.345-4.935 3.337-1.21 2.001-1.943 4.733-1.943 7.72 0 2.986.733 5.718 1.943 7.72.576.953 1.274 1.756 2.063 2.336H30.159a10.044 10.044 0 0 1-7.676-3.57 10.011 10.011 0 0 1-2.367-5.97l-.014-.516c0-5.545 4.512-10.057 10.057-10.057.39 0 .781.023 1.168.067l.386.052a5.301 5.301 0 0 0 4.634-1.568l.231-.257a5.3 5.3 0 0 0 1.122-4.54 5.025 5.025 0 0 0-.055-.236l-.1-.33-.165-.527a13.49 13.49 0 0 1-.532-3.243l-.011-.55Zm112.086 0c0-8.007-6.514-14.521-14.522-14.521-1.98 0-3.898.393-5.707 1.169l-.36.16a4.303 4.303 0 0 1-3.752-.072h.001a4.304 4.304 0 0 1-2.212-2.752l-.056-.24c-2.793-13.982-15.036-24.187-29.256-24.503l-.68-.008c-14.281 0-26.703 9.988-29.795 23.848l-.14.663a4.302 4.302 0 0 1-2.051 2.873l-.216.119c-1.1.56-2.384.617-3.526.168l-.226-.096a14.375 14.375 0 0 0-6.067-1.33 14.48 14.48 0 0 0-10.423 4.422 14.471 14.471 0 0 0-4.098 10.1c0 1.381.195 2.75.583 4.075l.179.566a4.301 4.301 0 0 1-.613 3.922l-.173.22a4.301 4.301 0 0 1-3.67 1.515l-.278-.034c-.422-.065-.85-.106-1.278-.122l-.428-.009c-5.467 0-10.018 3.99-10.9 9.21a11.2 11.2 0 0 0-.142 1.278l-.015.569c0 2.749 1.011 5.265 2.677 7.2a11.121 11.121 0 0 0 3.346 2.638 10.977 10.977 0 0 0 5.034 1.218h124.442c6.096 0 11.055-4.96 11.055-11.056 0-6.097-4.959-11.057-11.055-11.057-.428 0-.858.025-1.284.074l-.423.057a4.304 4.304 0 0 1-4.814-5.356l.081-.268c.505-1.5.762-3.061.762-4.64Z"/></g><defs><linearGradient id="b" x1="81.119" x2="89.91" y1="8" y2="167.548" gradientUnits="userSpaceOnUse"><stop stop-color="#3576EF"/><stop offset="1" stop-color="#9BBEFF"/></linearGradient><linearGradient id="c" x1="81.119" x2="89.91" y1="8" y2="167.548" gradientUnits="userSpaceOnUse"><stop stop-color="#3576EF"/><stop offset="1" stop-color="#9BBEFF"/></linearGradient><linearGradient id="d" x1="81.119" x2="89.91" y1="8" y2="167.548" gradientUnits="userSpaceOnUse"><stop stop-color="#3576EF"/><stop offset="1" stop-color="#9BBEFF"/></linearGradient><linearGradient id="e" x1="81.119" x2="89.91" y1="8" y2="167.548" gradientUnits="userSpaceOnUse"><stop stop-color="#3576EF"/><stop offset="1" stop-color="#9BBEFF"/></linearGradient><linearGradient id="f" x1="81.119" x2="89.91" y1="8" y2="167.548" gradientUnits="userSpaceOnUse"><stop stop-color="#3576EF"/><stop offset="1" stop-color="#9BBEFF"/></linearGradient><linearGradient id="g" x1="81.119" x2="89.91" y1="8" y2="167.548" gradientUnits="userSpaceOnUse"><stop stop-color="#3576EF"/><stop offset="1" stop-color="#9BBEFF"/></linearGradient><filter id="a" width="184.76" height="180" x="0" y="0" color-interpolation-filters="sRGB" filterUnits="userSpaceOnUse"><feFlood flood-opacity="0" result="BackgroundImageFix"/><feColorMatrix in="SourceAlpha" result="hardAlpha" values="0 0 0 0 0 0 0 0 0 0 0 0 0 0 0 0 0 0 127 0"/><feOffset dy="2"/><feGaussianBlur stdDeviation="5"/><feComposite in2="hardAlpha" operator="out"/><feColorMatrix values="0 0 0 0 0 0 0 0 0 0 0 0 0 0 0 0 0 0 1 0"/><feBlend in2="BackgroundImageFix" result="effect1_dropShadow_857_52"/><feBlend in="SourceGraphic" in2="effect1_dropShadow_857_52" result="shape"/></filter></defs></svg>