<svg xmlns="http://www.w3.org/2000/svg" width="161" height="170" fill="none"><g filter="url(#a)"><path fill="url(#b)" d="M80.23 158c70.693-21.665 70.229-118.794 70.229-118.794C102.425 40.398 80.229 8 80.229 8S58.036 40.398 10 39.206c0 0-.464 97.129 70.23 118.794Z"/></g><path fill="#101011" d="M94.342 70.212c0-8.348-7.221-14.973-15.702-13.98-6.493.73-11.793 6.03-12.39 12.59-.596 5.83 2.386 10.997 7.023 13.647.796.464 1.193 1.326.994 2.187l-5.499 22.858c-.331 1.325.663 2.584 2.054 2.584h19.081c1.325 0 2.32-1.259 2.054-2.584l-5.499-22.858c-.199-.861.199-1.723.994-2.187 4.041-2.451 6.89-7.022 6.89-12.257Z"/><defs><linearGradient id="b" x1="90" x2="76.5" y1="11.5" y2="158" gradientUnits="userSpaceOnUse"><stop stop-color="#0E863C"/><stop offset="1" stop-color="#0AD785"/></linearGradient><filter id="a" width="160.46" height="170" x="0" y="0" color-interpolation-filters="sRGB" filterUnits="userSpaceOnUse"><feFlood flood-opacity="0" result="BackgroundImageFix"/><feColorMatrix in="SourceAlpha" result="hardAlpha" values="0 0 0 0 0 0 0 0 0 0 0 0 0 0 0 0 0 0 127 0"/><feOffset dy="2"/><feGaussianBlur stdDeviation="5"/><feComposite in2="hardAlpha" operator="out"/><feColorMatrix values="0 0 0 0 0 0 0 0 0 0 0 0 0 0 0 0 0 0 1 0"/><feBlend in2="BackgroundImageFix" result="effect1_dropShadow_210_291"/><feBlend in="SourceGraphic" in2="effect1_dropShadow_210_291" result="shape"/></filter></defs></svg>