<svg xmlns="http://www.w3.org/2000/svg" width="640" height="288" fill="none"><g clip-path="url(#a)"><rect width="640" height="288" fill="#fff" rx="144"/><path fill="#0069FC" d="M0 0h640v640H0z"/><ellipse cx="263.4" cy="144.027" fill="#77B0FF" rx="31.4" ry="34.495"/><ellipse cx="353.4" cy="144.027" fill="#77B0FF" rx="31.4" ry="34.495"/><circle cx="254.555" cy="155.968" r="22.555" fill="#000"/><circle cx="345.439" cy="155.968" r="22.555" fill="#000"/><path fill="#FFE814" d="M147.288 129.09c0 14.492-12.114 28.191-28.078 28.191h-11.548V184h-15.17v-82.987h26.718c14.492 0 28.078 12.34 28.078 28.077Zm-39.626 15.737h11.322c7.585 0 13.925-7.245 13.925-15.737 0-7.925-6.113-15.51-13.925-15.51h-11.322v31.247ZM212.661 184h-15.85l-10.982-26.832c-.906.113-1.812.113-2.831.113H171.79V184h-15.171v-82.987h27.172c14.492 0 28.077 12.34 28.077 28.077 0 8.944-4.415 17.436-12.453 23.21l13.246 31.7Zm-40.871-39.173h11.661c7.586 0 13.813-7.019 13.813-15.737 0-8.038-6.001-15.51-13.926-15.51H171.79v31.247Zm87.358 40.418c-23.322 0-42.682-19.812-42.682-42.682 0-23.549 19.926-42.57 42.682-42.57 23.549 0 42.683 19.814 42.683 42.57 0 23.775-19.813 42.682-42.683 42.682Zm-27.058-42.682c0 15.624 12.227 30.342 27.058 30.342 15.737 0 27.059-15.85 27.059-30.342 0-15.284-12.227-30.342-27.059-30.342-15.397 0-27.058 15.511-27.058 30.342Zm117.834 42.682c-23.322 0-42.682-19.812-42.682-42.682 0-23.549 19.926-42.57 42.682-42.57 23.549 0 42.683 19.814 42.683 42.57 0 23.775-19.813 42.682-42.683 42.682Zm-27.058-42.682c0 15.624 12.227 30.342 27.058 30.342 15.737 0 27.059-15.85 27.059-30.342 0-15.284-12.227-30.342-27.059-30.342-15.397 0-27.058 15.511-27.058 30.342Zm93.833-28.53v29.775h22.53l-1.132 12.567h-21.398V184h-15.058v-82.987h42.796l1.245 13.02h-28.983ZM511.75 184h-15.851l-10.981-26.832c-.906.113-1.812.113-2.831.113h-11.208V184h-15.171v-82.987h27.172c14.491 0 28.077 12.34 28.077 28.077 0 8.944-4.415 17.436-12.454 23.21L511.75 184Zm-40.871-39.173h11.661c7.585 0 13.812-7.019 13.812-15.737 0-8.038-6-15.51-13.925-15.51h-11.548v31.247ZM577.096 184h-15.85l-10.982-26.832c-.905.113-1.811.113-2.83.113h-11.209V184h-15.17v-82.987h27.171c14.492 0 28.078 12.34 28.078 28.077 0 8.944-4.416 17.436-12.454 23.21l13.246 31.7Zm-40.871-39.173h11.662c7.585 0 13.812-7.019 13.812-15.737 0-8.038-6-15.51-13.925-15.51h-11.549v31.247Z"/></g><defs><clipPath id="a"><rect width="640" height="288" fill="#fff" rx="144"/></clipPath></defs></svg>