<svg xmlns="http://www.w3.org/2000/svg" width="640" height="640" fill="none"><g clip-path="url(#a)"><rect width="640" height="640" fill="#fff" rx="120"/><path fill="#0069FC" d="M0 0h640v640H0z"/><path fill="#77B0FF" d="M274.321 323.924c0 59.503-43.908 107.74-98.072 107.74-54.163 0-98.07-48.237-98.07-107.74 0-59.503 43.907-107.74 98.07-107.74 54.164 0 98.072 48.237 98.072 107.74Zm273.495 0c0 59.503-43.908 107.74-98.072 107.74-54.163 0-98.071-48.237-98.071-107.74 0-59.503 43.908-107.74 98.071-107.74 54.164 0 98.072 48.237 98.072 107.74Z"/><path fill="#000" d="M219.069 361.219c0 38.906-31.539 70.446-70.445 70.446-38.906 0-70.446-31.54-70.446-70.446s31.54-70.446 70.446-70.446 70.445 31.54 70.445 70.446Zm276.258 0c0 38.906-31.54 70.446-70.446 70.446s-70.446-31.54-70.446-70.446 31.54-70.446 70.446-70.446 70.446 31.54 70.446 70.446Z"/><path fill="#FFE814" d="M185.311 452.661C112.467 452.661 52 390.78 52 319.35c0-73.55 62.235-132.957 133.311-132.957 73.55 0 133.311 61.882 133.311 132.957 0 74.258-61.882 133.311-133.311 133.311ZM100.798 319.35c0 48.799 38.19 94.768 84.513 94.768 49.151 0 84.512-49.505 84.512-94.768 0-47.737-38.189-94.767-84.512-94.767-48.091 0-84.513 48.445-84.513 94.767Zm353.891 133.311c-72.843 0-133.311-61.881-133.311-133.311 0-73.55 62.236-132.957 133.311-132.957C528.24 186.393 588 248.275 588 319.35c0 74.258-61.882 133.311-133.311 133.311ZM370.177 319.35c0 48.799 38.189 94.768 84.512 94.768 49.152 0 84.513-49.505 84.513-94.768 0-47.737-38.19-94.767-84.513-94.767-48.091 0-84.512 48.445-84.512 94.767Z"/></g><defs><clipPath id="a"><rect width="640" height="640" fill="#fff" rx="120"/></clipPath></defs></svg>