<svg xmlns="http://www.w3.org/2000/svg" width="929" height="300" fill="none"><path fill="#fff" d="M381.244 131.247c0 18.145-15.169 35.298-35.157 35.298h-14.459V200h-18.996V96.09h33.455c18.145 0 35.157 15.452 35.157 35.157Zm-49.616 19.704h14.176c9.498 0 17.436-9.072 17.436-19.704 0-9.924-7.655-19.421-17.436-19.421h-14.176v39.125ZM463.099 200h-19.847l-13.75-33.597c-1.134.142-2.268.142-3.544.142h-14.034V200h-18.996V96.09h34.022c18.145 0 35.156 15.452 35.156 35.157 0 11.199-5.528 21.831-15.593 29.06L463.099 200Zm-51.175-49.049h14.601c9.498 0 17.294-8.789 17.294-19.704 0-10.065-7.513-19.421-17.436-19.421h-14.459v39.125Zm109.383 50.608c-29.203 0-53.444-24.808-53.444-53.443 0-29.486 24.95-53.302 53.444-53.302 29.486 0 53.443 24.808 53.443 53.302 0 29.769-24.808 53.443-53.443 53.443Zm-33.881-53.443c0 19.563 15.31 37.992 33.881 37.992 19.704 0 33.88-19.847 33.88-37.992 0-19.138-15.31-37.992-33.88-37.992-19.28 0-33.881 19.421-33.881 37.992Zm147.543 53.443c-29.202 0-53.443-24.808-53.443-53.443 0-29.486 24.949-53.302 53.443-53.302 29.486 0 53.443 24.808 53.443 53.302 0 29.769-24.808 53.443-53.443 53.443Zm-33.881-53.443c0 19.563 15.31 37.992 33.881 37.992 19.705 0 33.881-19.847 33.881-37.992 0-19.138-15.31-37.992-33.881-37.992-19.279 0-33.881 19.421-33.881 37.992Zm117.49-35.723v37.282h28.211l-1.418 15.736h-26.793V200h-18.854V96.09h53.585l1.56 16.303h-36.291ZM837.593 200h-19.846l-13.751-33.597c-1.134.142-2.268.142-3.544.142h-14.034V200h-18.996V96.09h34.023c18.145 0 35.156 15.452 35.156 35.157 0 11.199-5.529 21.831-15.594 29.06L837.593 200Zm-51.175-49.049h14.601c9.498 0 17.295-8.789 17.295-19.704 0-10.065-7.513-19.421-17.436-19.421h-14.46v39.125ZM919.415 200h-19.846l-13.751-33.597c-1.134.142-2.268.142-3.544.142H868.24V200h-18.996V96.09h34.023c18.145 0 35.156 15.452 35.156 35.157 0 11.199-5.529 21.831-15.594 29.06L919.415 200Zm-51.175-49.049h14.601c9.498 0 17.295-8.789 17.295-19.704 0-10.065-7.513-19.421-17.436-19.421h-14.46v39.125Z"/><rect width="235.321" height="235.321" x="28" y="32" fill="#0069FC" rx="117.66"/><path fill="#77B0FF" d="M132.347 150.951c0 17.103-12.62 30.968-28.188 30.968-15.569 0-28.189-13.865-28.189-30.968s12.62-30.968 28.189-30.968c15.568 0 28.188 13.865 28.188 30.968Zm78.61 0c0 17.103-12.62 30.968-28.188 30.968s-28.189-13.865-28.189-30.968 12.621-30.968 28.189-30.968 28.188 13.865 28.188 30.968Z"/><path fill="#000" d="M116.466 161.67c0 11.183-9.065 20.249-20.248 20.249-11.183 0-20.248-9.066-20.248-20.249 0-11.182 9.066-20.248 20.248-20.248 11.183 0 20.248 9.066 20.248 20.248Zm79.404 0c0 11.183-9.065 20.249-20.248 20.249-11.182 0-20.248-9.066-20.248-20.249 0-11.182 9.066-20.248 20.248-20.248 11.183 0 20.248 9.066 20.248 20.248Z"/><path fill="#FFE814" d="M106.763 187.954c-20.937 0-38.317-17.787-38.317-38.318 0-21.14 17.888-38.215 38.317-38.215 21.141 0 38.317 17.786 38.317 38.215 0 21.344-17.786 38.318-38.317 38.318Zm-24.291-38.318c0 14.026 10.977 27.239 24.291 27.239 14.128 0 24.291-14.229 24.291-27.239 0-13.721-10.976-27.239-24.291-27.239-13.823 0-24.291 13.925-24.291 27.239Zm101.718 38.318c-20.937 0-38.317-17.787-38.317-38.318 0-21.14 17.888-38.215 38.317-38.215 21.141 0 38.317 17.786 38.317 38.215 0 21.344-17.786 38.318-38.317 38.318Zm-24.291-38.318c0 14.026 10.977 27.239 24.291 27.239 14.128 0 24.291-14.229 24.291-27.239 0-13.721-10.976-27.239-24.291-27.239-13.823 0-24.291 13.925-24.291 27.239Z"/></svg>