<svg width="450" height="450" viewBox="0 0 450 450" fill="none" xmlns="http://www.w3.org/2000/svg">
<rect width="450" height="450" rx="66.1765" fill="#0069FC"/>
<path d="M192.882 227.759C192.882 269.598 162.009 303.514 123.925 303.514C85.8418 303.514 54.9689 269.598 54.9689 227.759C54.9689 185.921 85.8418 152.004 123.925 152.004C162.009 152.004 192.882 185.921 192.882 227.759Z" fill="#77B0FF"/>
<path d="M385.183 227.759C385.183 269.598 354.31 303.514 316.226 303.514C278.143 303.514 247.27 269.598 247.27 227.759C247.27 185.921 278.143 152.004 316.226 152.004C354.31 152.004 385.183 185.921 385.183 227.759Z" fill="#77B0FF"/>
<path d="M154.033 253.982C154.033 281.338 131.857 303.514 104.501 303.514C77.1452 303.514 54.9689 281.338 54.9689 253.982C54.9689 226.627 77.1452 204.45 104.501 204.45C131.857 204.45 154.033 226.627 154.033 253.982Z" fill="black"/>
<path d="M348.277 253.982C348.277 281.338 326.1 303.514 298.744 303.514C271.389 303.514 249.212 281.338 249.212 253.982C249.212 226.627 271.389 204.45 298.744 204.45C326.1 204.45 348.277 226.627 348.277 253.982Z" fill="black"/>
<path d="M130.297 318.278C79.0784 318.278 36.5624 274.767 36.5624 224.544C36.5624 172.828 80.3216 131.058 130.297 131.058C182.012 131.058 224.031 174.569 224.031 224.544C224.031 276.756 180.52 318.278 130.297 318.278ZM70.8736 224.544C70.8736 258.855 97.7258 291.177 130.297 291.177C164.856 291.177 189.719 256.368 189.719 224.544C189.719 190.978 162.867 157.91 130.297 157.91C96.4826 157.91 70.8736 191.973 70.8736 224.544Z" fill="#FFE814"/>
<path d="M319.703 318.278C268.485 318.278 225.969 274.767 225.969 224.544C225.969 172.828 269.728 131.058 319.703 131.058C371.419 131.058 413.437 174.569 413.437 224.544C413.437 276.756 369.927 318.278 319.703 318.278ZM260.28 224.544C260.28 258.855 287.133 291.177 319.703 291.177C354.263 291.177 379.126 256.368 379.126 224.544C379.126 190.978 352.274 157.91 319.703 157.91C285.889 157.91 260.28 191.973 260.28 224.544Z" fill="#FFE814"/>
</svg>
