<svg xmlns="http://www.w3.org/2000/svg" width="18" height="18" fill="none"><path fill="#fff" fill-rule="evenodd" d="M10.203.5H8.111c-3.105 0-4.658 0-5.747.79-.351.256-.66.565-.916.917-.79 1.089-.79 2.641-.79 5.747v2.092c0 3.106 0 4.659.79 5.747.256.352.565.66.916.916 1.089.791 2.642.791 5.747.791h2.092c3.106 0 4.659 0 5.747-.79a4.15 4.15 0 0 0 .916-.917c.791-1.088.791-2.641.791-5.747V7.954c0-3.106 0-4.658-.79-5.747a4.139 4.139 0 0 0-.917-.916C14.862.5 13.31.5 10.203.5ZM12.644 9A3.487 3.487 0 1 1 5.67 9a3.487 3.487 0 0 1 6.974 0Zm1.308-3.923a.872.872 0 1 0 0-1.744.872.872 0 0 0 0 1.744Z" clip-rule="evenodd"/></svg>