<svg xmlns="http://www.w3.org/2000/svg" width="18" height="18" fill="none"><path fill="#fff" fill-rule="evenodd" d="M.657 7.954c0-3.106 0-4.658.791-5.747.256-.352.565-.66.916-.916C3.453.5 5.006.5 8.111.5h2.092c3.106 0 4.659 0 5.747.79.352.256.661.565.916.917.791 1.089.791 2.641.791 5.747v2.092c0 3.106 0 4.659-.79 5.747a4.15 4.15 0 0 1-.917.916c-1.088.791-2.641.791-5.747.791H8.111c-3.105 0-4.658 0-5.747-.79a4.14 4.14 0 0 1-.916-.917c-.79-1.088-.79-2.641-.79-5.747V7.954Zm4.577-.916c.361 0 .654.293.654.654v5.231a.654.654 0 0 1-1.308 0v-5.23c0-.362.293-.655.654-.655Zm3.051 0c.362 0 .654.293.654.654v.197a3.636 3.636 0 0 1 2.343-.85 2.452 2.452 0 0 1 2.452 2.451v3.433a.654.654 0 1 1-1.307 0V9.49c0-.632-.513-1.144-1.145-1.144A2.343 2.343 0 0 0 8.94 10.69v2.234a.654.654 0 0 1-1.307 0V7.692c0-.36.292-.654.653-.654Zm-3.05-1.09a.872.872 0 1 0 0-1.743.872.872 0 0 0 0 1.744Z" clip-rule="evenodd"/></svg>